<svg width="100" height="20" viewBox="0 0 100 20" fill="none" xmlns="http://www.w3.org/2000/svg">
<path d="M15 9.00049L13.5899 7.59049L10.9997 10.1705L10.9997 3.00049L8.99967 3.00049L8.99967 10.1705L6.40947 7.59049L4.99941 9.00049L9.99971 14.0005L15 9.00049Z" fill="#212126"/>
<path d="M3 15H17V17H3V15Z" fill="#212126"/>
<path d="M55 9.00049L53.5899 7.59049L50.9997 10.1705L50.9997 3.00049L48.9997 3.00049L48.9997 10.1705L46.4095 7.59049L44.9994 9.00049L49.9997 14.0005L55 9.00049Z" fill="#125DE6"/>
<path d="M43 15H57V17H43V15Z" fill="#125DE6"/>
<path d="M95 9.00049L93.5899 7.59049L90.9997 10.1705L90.9997 3.00049L88.9997 3.00049L88.9997 10.1705L86.4095 7.59049L84.9994 9.00049L89.9997 14.0005L95 9.00049Z" fill="white"/>
<path d="M83 15H97V17H83V15Z" fill="white"/>
</svg>
