<svg width="100" height="20" viewBox="0 0 100 20" fill="none" xmlns="http://www.w3.org/2000/svg">
<circle cx="90" cy="10" r="9" stroke="#125DE6" stroke-width="2"/>
<path d="M94 10C94 12.6398 93.4629 14.9803 92.6411 16.6239C91.7894 18.3272 90.7979 19 90 19C89.2021 19 88.2106 18.3272 87.3589 16.6239C86.5371 14.9803 86 12.6398 86 10C86 7.36016 86.5371 5.01967 87.3589 3.37615C88.2106 1.67281 89.2021 1 90 1C90.7979 1 91.7894 1.67281 92.6411 3.37615C93.4629 5.01967 94 7.36016 94 10Z" stroke="#125DE6" stroke-width="2"/>
<rect x="81" y="6" width="18" height="2" fill="#125DE6"/>
<rect x="81" y="12" width="18" height="2" fill="#125DE6"/>
<circle cx="50" cy="10" r="9" stroke="#36363D" stroke-width="2"/>
<path d="M54 10C54 12.6398 53.4629 14.9803 52.6411 16.6239C51.7894 18.3272 50.7979 19 50 19C49.2021 19 48.2106 18.3272 47.3589 16.6239C46.5371 14.9803 46 12.6398 46 10C46 7.36016 46.5371 5.01967 47.3589 3.37615C48.2106 1.67281 49.2021 1 50 1C50.7979 1 51.7894 1.67281 52.6411 3.37615C53.4629 5.01967 54 7.36016 54 10Z" stroke="#36363D" stroke-width="2"/>
<rect x="41" y="6" width="18" height="2" fill="#36363D"/>
<rect x="41" y="12" width="18" height="2" fill="#36363D"/>
<circle cx="10" cy="10" r="9" stroke="white" stroke-width="2"/>
<path d="M14 10C14 12.6398 13.4629 14.9803 12.6411 16.6239C11.7894 18.3272 10.7979 19 10 19C9.20212 19 8.21056 18.3272 7.35889 16.6239C6.53713 14.9803 6 12.6398 6 10C6 7.36016 6.53713 5.01967 7.35889 3.37615C8.21056 1.67281 9.20212 1 10 1C10.7979 1 11.7894 1.67281 12.6411 3.37615C13.4629 5.01967 14 7.36016 14 10Z" stroke="white" stroke-width="2"/>
<rect x="1" y="6" width="18" height="2" fill="white"/>
<rect x="1" y="12" width="18" height="2" fill="white"/>
</svg>
