<svg id="그룹_8056" data-name="그룹 8056" xmlns="http://www.w3.org/2000/svg" width="16" height="16" viewBox="0 0 16 16">
  <rect id="사각형_1314" data-name="사각형 1314" width="16" height="16" fill="rgba(255,255,255,0)"/>
  <path id="패스_6578" data-name="패스 6578" d="M45.538,17.231H43.692v-.615a.615.615,0,1,0-1.231,0v.615H36.308v-.615a.615.615,0,1,0-1.231,0v.615H33.231A1.231,1.231,0,0,0,32,18.462V30.769A1.231,1.231,0,0,0,33.231,32H45.538a1.231,1.231,0,0,0,1.231-1.231V18.462A1.231,1.231,0,0,0,45.538,17.231ZM35.077,18.462v.615a.615.615,0,0,0,1.231,0v-.615h6.154v.615a.615.615,0,0,0,1.231,0v-.615h1.846v2.462H33.231V18.462ZM45.538,30.769H33.231V22.154H45.538Z" transform="translate(-31.384 -16)" fill="#666"/>
</svg>
